<svg width="36" height="49" viewBox="0 0 36 49" fill="none" xmlns="http://www.w3.org/2000/svg">
<g clip-path="url(#clip0_2605_4539)">
<path d="M35.5416 12.3399L29.0702 7.87804L24.3439 7.89369L24.3308 4.49323L17.7655 0L0 12.3431V20.2336L5.40974 23.9879L0 27.7296V35.6546L17.7708 48.0008L35.5416 35.6546V27.7672L29.8866 23.8501L35.5259 19.9236L35.5389 12.3399H35.5416Z" fill="#1e3a8a"/>
<path d="M17.771 17.012L17.7841 17.0025L17.771 16.9932V17.012Z" fill="#201D1D"/>
<path d="M17.7788 32.5799L12.2465 28.7317V20.8506L6.62285 24.7551L1.17139 28.5438L6.60721 32.4421L12.0952 36.2559L17.771 40.1072L23.246 36.306L28.8696 32.3983L34.3732 28.5752V28.572L28.7757 24.6675L23.259 28.5L17.7788 32.5799Z" fill="white"/>
<path d="M12.3091 13.1824L16.4747 10.2516V14.3471L21.5662 14.3315L17.771 16.993L12.2465 20.8506L17.771 24.6863L23.2981 20.8475L28.8748 16.9742L34.3732 13.1542L28.747 9.27777L23.1234 9.26527L23.1312 5.2918L17.771 1.62207L12.2752 5.44211L6.73244 9.29342L1.17139 13.1542L6.7585 17.0368L12.3091 13.1824Z" fill="white"/>
</g>
<defs>
<clipPath id="clip0_2605_4539">
<rect width="35.5806" height="48.0249" fill="white"/>
</clipPath>
</defs>
</svg>
